<svg width="170" height="30" viewBox="0 0 170 30" fill="none" xmlns="http://www.w3.org/2000/svg"><g clip-path="url(#clip0_3859_10044)"><path d="M165.29 1.36022L167.759 3.82888V20.0207L165.29 22.4894H135.381L130.858 3.73406L132.144 1.36022H165.29ZM165.854 0H131.334L129.414 3.5455L134.311 23.8496H165.855L169.12 20.5842V3.26539L165.855 0H165.854Z" fill="#6CE880"></path><path d="M39.1062 15.6896C38.982 15.234 38.7738 14.8297 38.4839 14.4765C38.194 14.1234 37.7994 13.8542 37.3024 13.6678C36.8054 13.4803 36.1711 13.3877 35.4049 13.3877H32.885C31.9934 13.3877 31.2152 13.4509 30.5515 13.5752C29.8866 13.6994 29.3231 13.9228 28.8566 14.2433C28.3901 14.5648 28.0174 14.9997 27.7362 15.5501C27.4572 16.0994 27.2337 16.8002 27.0681 17.6504L29.7438 18.5528C29.8267 18.0547 29.9357 17.6395 30.0697 17.3081C30.2049 16.9768 30.3967 16.7065 30.6463 16.4994C30.8948 16.2923 31.2109 16.1463 31.5956 16.0634C31.9782 15.9806 32.534 15.9534 33.0408 15.9392C33.5487 15.925 36.0065 15.8171 35.9662 17.3386V20.3871H31.7667C31.2882 20.3871 30.8436 20.4089 30.4283 20.4504C30.013 20.4918 29.625 20.555 29.2621 20.6367C28.898 20.7207 28.5667 20.8297 28.2659 20.9637C27.9651 21.0978 27.6904 21.2591 27.4408 21.4455C27.1923 21.6329 26.9689 21.8607 26.7727 22.1299C26.5754 22.4002 26.4196 22.7109 26.3062 23.0629C26.1929 23.416 26.1046 23.8051 26.0414 24.2302C25.9792 24.6553 25.9487 25.1272 25.9487 25.6449C25.9487 26.3098 26.0359 26.9103 26.2125 27.4498C26.3891 27.9893 26.7106 28.446 27.1782 28.8188C27.6446 29.1915 28.2822 29.4825 29.091 29.6896C29.8986 29.8967 30.9144 30.0013 32.1395 30.0013H33.1346L36.049 27.295H36.2768L36.4643 29.7833H39.2948V17.246C39.2948 16.6662 39.2327 16.1474 39.1084 15.6907L39.1062 15.6896ZM29.9596 27.2624C29.7525 27.0967 29.5956 26.7806 29.4931 26.3141C29.3885 25.8476 29.3384 25.3757 29.3384 24.8983C29.3384 24.6912 29.3482 24.4787 29.3689 24.2607C29.3896 24.0427 29.4201 23.8302 29.4626 23.6231C29.504 23.416 29.5662 23.2242 29.649 23.0476C29.7318 22.8711 29.8256 22.7414 29.9291 22.6585H35.964V25.0389L33.3198 27.2624H29.9596Z" fill="#6CE880"></path><path d="M47.3644 6.45117H44.0674V29.782H47.3644V6.45117Z" fill="#6CE880"></path><path d="M62.5045 6.45117V15.904L59.6729 13.3874H58.3976C57.5889 13.3874 56.8314 13.455 56.1273 13.589C55.4211 13.7253 54.7889 13.9629 54.2298 14.3051C53.6696 14.6463 53.1922 15.1084 52.7977 15.6893C52.4031 16.2692 52.0925 16.9961 51.8647 17.867C51.7818 18.1362 51.7186 18.4261 51.6783 18.7378C51.6358 19.0495 51.5944 19.3711 51.5541 19.7024C51.5115 20.0348 51.481 20.3825 51.4603 20.7454C51.4385 21.1084 51.4287 21.4964 51.4287 21.9117C51.4287 23.1978 51.5333 24.3433 51.7404 25.3493C51.9475 26.3563 52.3312 27.201 52.8914 27.8855C53.4516 28.57 54.2026 29.0942 55.1464 29.4561C56.0903 29.8179 57.2979 29.9999 58.7715 29.9999H59.5181L62.5361 27.3242H62.8162L63.0036 29.782H65.8036V6.45117H62.5066H62.5045ZM56.0957 27.2621C55.6391 26.8686 55.3121 26.158 55.1159 25.1324C54.9186 24.1057 54.8205 22.9078 54.8205 21.5389C54.8205 21.2076 54.8249 20.886 54.8358 20.5743C54.8467 20.2626 54.8674 19.9476 54.899 19.625C54.9295 19.3035 54.9611 18.9983 54.9927 18.7073C55.0233 18.4174 55.0701 18.1362 55.1323 17.8681C55.1955 17.4735 55.2881 17.1313 55.4124 16.8414C55.5366 16.5514 55.6816 16.3117 55.8472 16.1264H59.8603L62.5045 18.3291V24.8806L59.6423 27.2621H56.0968H56.0957Z" fill="#6CE880"></path><path d="M71.1433 10.7119C70.8523 10.6291 70.6299 10.4896 70.4741 10.2923C70.3193 10.0961 70.2049 9.86177 70.1318 9.59256C70.0599 9.32226 70.0239 9.02144 70.0239 8.69011C70.0239 8.27594 70.0653 7.94242 70.1482 7.69392C70.231 7.44542 70.3553 7.22744 70.5209 7.04106C70.7084 6.8536 70.946 6.7239 71.2359 6.65196C71.5258 6.58003 71.8583 6.54297 72.2321 6.54297C73.1029 6.54297 73.6828 6.73043 73.9738 7.10319C74.2637 7.47594 74.4098 8.00564 74.4098 8.69011C74.4098 9.14569 74.352 9.50973 74.2386 9.77894C74.1242 10.0492 73.9738 10.2759 73.7874 10.4634C73.601 10.6095 73.3787 10.7075 73.1193 10.7588C72.8599 10.8111 72.5645 10.8362 72.2332 10.8362C71.7972 10.8362 71.4354 10.7947 71.1444 10.7119H71.1433Z" fill="#6CE880"></path><path d="M73.88 13.6055H70.583V29.782H73.88V13.6055Z" fill="#6CE880"></path><path d="M88.5764 13.6055L84.8816 26.9515H84.2723L80.5503 13.6055H77.0669L81.9824 29.782H82.6669H84.098H85.0614H86.6789H87.177L92.0914 13.6055H88.5764Z" fill="#6CE880"></path><path d="M21.8125 29.7817H18.351L18.1657 18.9522L18.1875 12.1163L13.5074 27.834H8.30518L3.58038 11.6923V18.9522L3.42888 29.7817H0L0.434877 8.00293H5.97493L10.6125 25.0035H11.2L15.9019 8.00293H21.3766L21.8125 29.7817Z" fill="#6CE880"></path><path d="M114.845 29.7659C114.108 29.6111 113.501 29.3615 113.024 29.0193C112.547 28.6771 112.18 28.252 111.92 27.7441C111.661 27.2362 111.448 26.6193 111.283 25.8934L113.927 25.0215C114.009 25.5403 114.149 25.9545 114.346 26.2662C114.543 26.5768 114.797 26.81 115.108 26.9659C115.419 27.1218 115.772 27.2198 116.166 27.2613C116.559 27.3038 117.005 27.3245 117.503 27.3245H120.303C120.408 27.2198 120.495 27.0956 120.568 26.9517C120.64 26.8057 120.703 26.6455 120.755 26.4689C120.806 26.2923 120.842 26.1103 120.863 25.925C120.884 25.7376 120.894 25.5621 120.894 25.3953C120.894 24.7948 120.712 24.3479 120.35 24.058C119.988 23.7681 119.402 23.5196 118.593 23.3103L116.01 22.6574C115.16 22.4504 114.454 22.2106 113.894 21.9425C113.334 21.6722 112.899 21.3659 112.587 21.0237C112.276 20.6814 112.052 20.2825 111.919 19.8258C111.784 19.3713 111.718 18.8307 111.718 18.2095C111.718 17.525 111.795 16.9234 111.951 16.4046C112.106 15.8869 112.329 15.44 112.619 15.0673C112.867 14.7555 113.174 14.4907 113.538 14.2738C113.901 14.0558 114.309 13.8803 114.766 13.7452C115.222 13.61 115.731 13.5163 116.29 13.4651C116.85 13.4139 117.441 13.3877 118.063 13.3877C119.1 13.3877 119.955 13.4553 120.63 13.5893C121.302 13.7256 121.853 13.937 122.279 14.2269C122.703 14.5179 123.045 14.907 123.306 15.3942C123.564 15.8825 123.767 16.4787 123.912 17.1828L121.36 18.0536C121.277 17.598 121.153 17.2406 120.987 16.9812C120.822 16.7218 120.598 16.5256 120.319 16.3893C120.04 16.2553 119.712 16.167 119.339 16.1256C118.967 16.0842 118.531 16.0624 118.033 16.0624H115.451C115.367 16.1452 115.3 16.2553 115.248 16.3882C115.196 16.5245 115.155 16.6683 115.124 16.8242C115.093 16.9801 115.066 17.1359 115.046 17.2907C115.024 17.4466 115.016 17.597 115.016 17.7419C115.016 18.3643 115.176 18.8144 115.499 19.0945C115.82 19.3735 116.301 19.5871 116.944 19.7321L119.527 20.385C120.46 20.6139 121.226 20.8678 121.828 21.1468C122.429 21.4269 122.907 21.7485 123.26 22.1125C123.612 22.4754 123.855 22.8896 123.99 23.3561C124.125 23.8226 124.193 24.3784 124.193 25.0204C124.193 25.3114 124.176 25.5806 124.146 25.8291C124.115 26.0776 124.073 26.3228 124.022 26.5604C123.969 26.798 123.897 27.0215 123.804 27.2286C123.71 27.4357 123.602 27.6438 123.478 27.8509C123.27 28.1833 123 28.4842 122.669 28.7534C122.337 29.0237 121.927 29.2504 121.441 29.4378C120.952 29.6253 120.392 29.7637 119.76 29.8574C119.128 29.9512 118.397 29.998 117.567 29.998C116.488 29.998 115.58 29.9207 114.845 29.7637V29.7659Z" fill="#6CE880"></path><path d="M108.02 17.5719C107.823 16.5866 107.476 15.7888 106.978 15.1763C106.48 14.5648 105.78 14.1136 104.878 13.8237C103.975 13.5337 102.83 13.3877 101.44 13.3877C100.59 13.3877 99.8007 13.4553 99.076 13.5893C98.349 13.7256 97.7114 13.9632 97.1631 14.3054C96.6138 14.6466 96.131 15.0989 95.7168 15.658C95.3016 16.2171 94.98 16.9332 94.7512 17.804C94.689 18.0743 94.6269 18.3588 94.5648 18.6596C94.5016 18.9604 94.4503 19.282 94.41 19.6242C94.3675 19.9664 94.337 20.3305 94.3163 20.7141C94.2945 21.0978 94.2847 21.4967 94.2847 21.9109C94.2847 23.197 94.3893 24.3425 94.5964 25.3485C94.8035 26.3555 95.1926 27.2002 95.7637 27.8847C96.3337 28.5692 97.0956 29.0934 98.0503 29.4553C99.004 29.8182 100.228 29.9991 101.72 29.9991C102.612 29.9991 103.405 29.9414 104.1 29.828C104.796 29.7147 105.412 29.5065 105.952 29.2057C106.491 28.9049 106.953 28.4994 107.336 27.9915C107.72 27.4836 108.037 26.8362 108.286 26.0471L105.89 24.9583C105.724 25.4356 105.537 25.8237 105.33 26.1245C105.123 26.4253 104.858 26.6596 104.536 26.8253C104.215 26.991 103.821 27.1043 103.355 27.1675C102.888 27.2297 102.528 27.2613 101.66 27.2602C100.793 27.2591 98.313 27.4226 97.9272 25.0673C97.8476 24.5801 97.7811 24.0362 97.7397 23.4335C97.7157 23.0792 97.7136 22.6912 97.7037 22.3141H108.287C108.287 22.1899 108.291 22.0711 108.302 21.9555C108.313 21.8422 108.318 21.743 108.318 21.6602V21.1632C108.318 19.7528 108.219 18.5561 108.023 17.5708L108.02 17.5719ZM97.8945 18.5528C97.9577 18.2825 98.0198 18.034 98.0819 17.8051C98.1234 17.598 98.18 17.4117 98.2531 17.2449C98.325 17.0792 98.4078 16.9288 98.5016 16.7948C98.5953 16.6607 98.689 16.5354 98.7817 16.422C98.8743 16.3087 98.9833 16.2095 99.1076 16.1267H103.929C104.427 16.5212 104.733 17.1839 104.848 18.1179C104.909 18.6193 104.953 19.1828 104.981 19.7975H97.7332C97.7419 19.6798 97.7441 19.5534 97.755 19.44C97.7855 19.1185 97.8324 18.822 97.8945 18.5539V18.5528Z" fill="#6CE880"></path><path d="M144.193 13.5023C144.728 12.9999 145.159 12.5574 145.487 12.1759C145.814 11.7933 146.073 11.4413 146.265 11.1198C146.457 10.7982 146.59 10.4887 146.667 10.1944C146.742 9.90015 146.78 9.57754 146.78 9.22876C146.78 8.74811 146.72 8.3165 146.6 7.93394C146.481 7.55247 146.279 7.22549 145.994 6.95193C145.71 6.67836 145.331 6.468 144.857 6.32086C144.381 6.17372 143.79 6.09961 143.079 6.09961C142.543 6.09961 142.061 6.14648 141.629 6.23912C141.198 6.33285 140.827 6.48217 140.515 6.68925C140.204 6.89634 139.948 7.17536 139.746 7.52522C139.544 7.87509 139.41 8.30124 139.344 8.80261L141.163 9.21132C141.174 9.02604 141.209 8.84402 141.27 8.6631C141.33 8.48326 141.424 8.31868 141.556 8.17154C141.687 8.02331 141.87 7.90669 142.105 7.81841C142.34 7.73122 142.647 7.68762 143.03 7.68762H144.275C144.339 7.74321 144.397 7.83585 144.447 7.96664C144.496 8.09743 144.536 8.24348 144.569 8.40152C144.602 8.55955 144.627 8.72522 144.642 8.9007C144.659 9.07509 144.667 9.23312 144.667 9.37481C144.667 9.62658 144.636 9.85874 144.577 10.0713C144.515 10.2849 144.424 10.4952 144.297 10.7023C144.171 10.9094 144 11.1274 143.781 11.3574C143.563 11.5873 143.295 11.8598 142.979 12.177L139.245 15.8784V17.353H146.845V15.7149H141.889L144.192 13.5045L144.193 13.5023Z" fill="#6CE880"></path><path d="M150.122 14.8115C149.86 14.8115 149.647 14.8366 149.483 14.8856C149.32 14.9347 149.186 15.0077 149.082 15.1069C148.977 15.205 148.899 15.3336 148.844 15.4916C148.79 15.6497 148.763 15.8437 148.763 16.0726C148.763 16.5314 148.867 16.8595 149.074 17.0557C149.281 17.2519 149.626 17.3499 150.107 17.3499C150.346 17.3499 150.549 17.326 150.713 17.2769C150.876 17.2268 151.01 17.1516 151.115 17.0469C151.218 16.9423 151.295 16.8115 151.344 16.6535C151.394 16.4954 151.418 16.3014 151.418 16.0726C151.418 15.6246 151.319 15.3031 151.122 15.1069C150.926 14.9107 150.593 14.8115 150.123 14.8115H150.122Z" fill="#6CE880"></path><path d="M161.399 9.40665C161.273 8.71891 161.049 8.12926 160.728 7.63771C160.406 7.14616 159.972 6.76687 159.425 6.49984C158.879 6.23172 158.181 6.09766 157.328 6.09766C156.903 6.09766 156.499 6.13689 156.116 6.2121C155.734 6.28839 155.391 6.42245 155.084 6.61428C154.778 6.8061 154.506 7.06441 154.266 7.39248C154.026 7.72054 153.823 8.12926 153.66 8.62082C153.594 8.81591 153.533 9.03499 153.479 9.27586C153.424 9.51564 153.381 9.76959 153.348 10.0377C153.315 10.3047 153.29 10.5914 153.274 10.8977C153.258 11.2028 153.25 11.5298 153.25 11.8797C153.25 12.7102 153.313 13.4688 153.44 14.1565C153.565 14.8442 153.786 15.4339 154.103 15.9254C154.419 16.4181 154.854 16.7974 155.406 17.0633C155.956 17.3314 156.665 17.4655 157.527 17.4655C157.92 17.4655 158.294 17.4295 158.649 17.3587C159.005 17.2878 159.328 17.169 159.624 17.0056C159.918 16.8421 160.186 16.6241 160.426 16.3505C160.666 16.0769 160.863 15.7445 161.016 15.3511C161.114 15.1211 161.198 14.8791 161.269 14.6219C161.339 14.3658 161.397 14.0868 161.441 13.7859C161.484 13.4862 161.52 13.1614 161.548 12.8116C161.575 12.4628 161.589 12.0911 161.589 11.6987C161.589 10.8584 161.526 10.0922 161.4 9.40447L161.399 9.40665ZM159.408 12.3472C159.408 12.5173 159.403 12.6808 159.392 12.8399C159.381 12.999 159.368 13.1538 159.35 13.3064C159.334 13.459 159.315 13.6061 159.294 13.7489C159.238 14.2186 159.151 14.6328 159.031 14.9936C158.911 15.3543 158.757 15.6323 158.572 15.8295H156.213C156.094 15.6987 155.981 15.5026 155.879 15.2399C155.774 14.9783 155.687 14.672 155.616 14.3222C155.545 13.9734 155.491 13.5799 155.453 13.1429C155.415 12.7058 155.395 12.2252 155.395 11.702C155.395 11.5821 155.397 11.4622 155.404 11.3413C155.409 11.2214 155.411 11.1015 155.411 10.9805C155.411 10.8595 155.42 10.7429 155.436 10.6274C155.453 10.5129 155.471 10.3952 155.493 10.2753C155.537 9.70746 155.627 9.19738 155.764 8.74398C155.901 8.29166 156.1 7.95488 156.362 7.7358H158.606C158.749 7.86768 158.869 8.06387 158.967 8.32545C159.066 8.58812 159.15 8.8933 159.221 9.24316C159.291 9.59302 159.34 9.98648 159.369 10.4225C159.395 10.8595 159.409 11.3402 159.409 11.8633V12.3462L159.408 12.3472Z" fill="#6CE880"></path></g><defs><clipPath id="clip0_3859_10044"><rect width="169.119" height="30" fill="white"></rect></clipPath></defs></svg>