<svg xmlns="http://www.w3.org/2000/svg" viewBox="0 0 800 450" role="img" aria-label="Concept illustration of a park redesign">
  <defs>
    <linearGradient id="sky" x1="0" y1="0" x2="0" y2="1">
      <stop offset="0" stop-color="#bfe3f7"/><stop offset="1" stop-color="#e8f6fd"/>
    </linearGradient>
  </defs>
  <rect width="800" height="450" fill="url(#sky)"/>
  <circle cx="690" cy="80" r="42" fill="#ffd76e"/>
  <rect y="300" width="800" height="150" fill="#8fce8f"/>
  <ellipse cx="400" cy="320" rx="320" ry="40" fill="#a8dba8"/>
  <path d="M0 330 Q 200 290 400 330 T 800 330 L 800 370 Q 600 340 400 370 T 0 370 Z" fill="#e8d8b0"/>
  <g><rect x="120" y="230" width="14" height="80" fill="#7a5230"/><circle cx="127" cy="205" r="55" fill="#3f9b58"/></g>
  <g><rect x="640" y="240" width="12" height="70" fill="#7a5230"/><circle cx="646" cy="215" r="48" fill="#2f8a4c"/></g>
  <g><rect x="300" y="265" width="90" height="10" rx="3" fill="#0e7c86"/><rect x="308" y="275" width="8" height="30" fill="#0b3a6f"/><rect x="374" y="275" width="8" height="30" fill="#0b3a6f"/></g>
  <path d="M450 240 L520 240 L485 190 Z" fill="#0e7c86"/><rect x="481" y="240" width="8" height="55" fill="#0b3a6f"/>
  <g><circle cx="560" cy="280" r="14" fill="#f4a261"/><rect x="556" y="294" width="8" height="26" fill="#264653"/></g>
  <g><circle cx="220" cy="290" r="11" fill="#e76f51"/><rect x="217" y="301" width="6" height="20" fill="#264653"/></g>
  <rect x="380" y="120" width="170" height="34" rx="17" fill="#ffffff" opacity="0.85"/>
  <text x="465" y="143" font-family="Segoe UI, sans-serif" font-size="18" fill="#0b3a6f" text-anchor="middle">Park redesign</text>
</svg>
